<svg xmlns="http://www.w3.org/2000/svg" viewBox="-20 -20 168 168">
  <defs>
    <filter id="fShadow" x="-25%" y="-15%" width="150%" height="160%">
      <feGaussianBlur in="SourceAlpha" stdDeviation="6" result="shadowBlur"/>
      <feOffset dx="4" dy="7" result="shadowOff"/>
      <feFlood flood-color="#000000" flood-opacity="0.65" result="shadowColor"/>
      <feComposite in="shadowColor" in2="shadowOff" operator="in" result="shadow"/>
      <feMerge>
        <feMergeNode in="shadow"/>
        <feMergeNode in="SourceGraphic"/>
      </feMerge>
    </filter>

    <filter id="f3d" x="-10%" y="-10%" width="120%" height="120%">
      <feGaussianBlur in="SourceAlpha" stdDeviation="2.5" result="blur"/>
      <feSpecularLighting in="blur" surfaceScale="8" specularConstant="1.2" specularExponent="35" result="spec" lighting-color="#e0ffff">
        <fePointLight x="-50" y="-70" z="130"/>
      </feSpecularLighting>
      <feComposite in="spec" in2="SourceAlpha" operator="in" result="specMask"/>
      <feDiffuseLighting in="blur" surfaceScale="5" diffuseConstant="1.0" result="diff" lighting-color="#ccffee">
        <fePointLight x="-40" y="-60" z="110"/>
      </feDiffuseLighting>
      <feComposite in="diff" in2="SourceAlpha" operator="in" result="diffMask"/>
      <feComposite in="SourceGraphic" in2="diffMask" operator="arithmetic" k1="0" k2="0.55" k3="0.45" k4="0" result="lit"/>
      <feComposite in="lit" in2="specMask" operator="arithmetic" k1="0" k2="1" k3="0.5" k4="0"/>
    </filter>

    <filter id="fGlow" x="-60%" y="-60%" width="220%" height="220%">
      <feGaussianBlur in="SourceGraphic" stdDeviation="4" result="glow"/>
      <feColorMatrix in="glow" type="saturate" values="2" result="saturated"/>
      <feMerge>
        <feMergeNode in="saturated"/>
        <feMergeNode in="SourceGraphic"/>
      </feMerge>
    </filter>

    <linearGradient id="bg" x1="0" y1="0" x2="0" y2="1">
      <stop offset="0%" stop-color="#0c1929"/>
      <stop offset="100%" stop-color="#050d16"/>
    </linearGradient>

    <radialGradient id="gBody" cx="0.35" cy="0.3" r="0.7" fx="0.3" fy="0.25">
      <stop offset="0%" stop-color="#b0f5e8"/>
      <stop offset="25%" stop-color="#5dcaa5"/>
      <stop offset="55%" stop-color="#1d9e75"/>
      <stop offset="80%" stop-color="#0f6e56"/>
      <stop offset="100%" stop-color="#04342c"/>
    </radialGradient>

    <radialGradient id="gHead" cx="0.38" cy="0.32" r="0.68" fx="0.33" fy="0.27">
      <stop offset="0%" stop-color="#c0faf0"/>
      <stop offset="25%" stop-color="#6ee0bb"/>
      <stop offset="55%" stop-color="#2db08a"/>
      <stop offset="80%" stop-color="#157a60"/>
      <stop offset="100%" stop-color="#053d30"/>
    </radialGradient>

    <linearGradient id="gNeck" x1="0" y1="0" x2="1" y2="0">
      <stop offset="0%" stop-color="#5dcaa5"/>
      <stop offset="30%" stop-color="#1d9e75"/>
      <stop offset="70%" stop-color="#0f6e56"/>
      <stop offset="100%" stop-color="#085041"/>
    </linearGradient>

    <radialGradient id="gAntenna" cx="0.4" cy="0.3" r="0.55">
      <stop offset="0%" stop-color="#ffffff"/>
      <stop offset="25%" stop-color="#a0ffe0"/>
      <stop offset="55%" stop-color="#22c55e"/>
      <stop offset="100%" stop-color="#0a7a3a"/>
    </radialGradient>

    <radialGradient id="gSpec" cx="0.5" cy="0.5" r="0.5">
      <stop offset="0%" stop-color="white" stop-opacity="0.75"/>
      <stop offset="100%" stop-color="white" stop-opacity="0"/>
    </radialGradient>

    <linearGradient id="gAO" x1="0" y1="0" x2="0" y2="1">
      <stop offset="0%" stop-color="black" stop-opacity="0"/>
      <stop offset="100%" stop-color="black" stop-opacity="0.45"/>
    </linearGradient>
  </defs>

  <rect x="-20" y="-20" width="168" height="168" rx="32" fill="url(#bg)"/>
  <ellipse cx="64" cy="70" rx="45" ry="50" fill="#1d9e75" opacity="0.08"/>

  <g filter="url(#fShadow)">

    <!-- EXTRUSION -->
    <g opacity="0.5">
      <g transform="translate(3, 5)">
        <path d="M32 76 Q32 65 41 63 L55 59 Q64 57 73 59 L87 63 Q96 65 96 76 L96 102 Q96 110 87 110 L41 110 Q32 110 32 102 Z" fill="#021a14"/>
        <rect x="38" y="18" width="52" height="38" rx="13" fill="#021a14"/>
        <rect x="55" y="52" width="18" height="14" rx="5" fill="#021a14"/>
      </g>
      <g transform="translate(2, 3.5)">
        <path d="M32 76 Q32 65 41 63 L55 59 Q64 57 73 59 L87 63 Q96 65 96 76 L96 102 Q96 110 87 110 L41 110 Q32 110 32 102 Z" fill="#042e24"/>
        <rect x="38" y="18" width="52" height="38" rx="13" fill="#042e24"/>
        <rect x="55" y="52" width="18" height="14" rx="5" fill="#042e24"/>
      </g>
      <g transform="translate(1, 2)">
        <path d="M32 76 Q32 65 41 63 L55 59 Q64 57 73 59 L87 63 Q96 65 96 76 L96 102 Q96 110 87 110 L41 110 Q32 110 32 102 Z" fill="#064538"/>
        <rect x="38" y="18" width="52" height="38" rx="13" fill="#064538"/>
        <rect x="55" y="52" width="18" height="14" rx="5" fill="#064538"/>
      </g>
    </g>

    <!-- Dark edge strokes -->
    <path d="M32 76 Q32 65 41 63 L55 59 Q64 57 73 59 L87 63 Q96 65 96 76 L96 102 Q96 110 87 110 L41 110 Q32 110 32 102 Z" fill="none" stroke="#021a14" stroke-width="2.5" opacity="0.6"/>
    <rect x="38" y="18" width="52" height="38" rx="13" fill="none" stroke="#021a14" stroke-width="2.5" opacity="0.6"/>

    <!-- BODY -->
    <g filter="url(#f3d)">
      <path d="M32 76 Q32 65 41 63 L55 59 Q64 57 73 59 L87 63 Q96 65 96 76 L96 102 Q96 110 87 110 L41 110 Q32 110 32 102 Z" fill="url(#gBody)"/>
    </g>
    <ellipse cx="52" cy="72" rx="18" ry="10" fill="url(#gSpec)" opacity="0.6"/>
    <path d="M32 76 Q32 65 41 63 L55 59 Q64 57 73 59 L87 63 Q96 65 96 76 L96 102 Q96 110 87 110 L41 110 Q32 110 32 102 Z" fill="url(#gAO)" opacity="0.4"/>
    <path d="M87 63 Q96 65 96 76 L96 102 Q96 110 87 110" fill="none" stroke="#b0f5e8" stroke-width="1.5" opacity="0.2"/>

    <!-- NPC text -->
    <text x="64" y="95" text-anchor="middle" font-family="system-ui, -apple-system, sans-serif" font-size="16" font-weight="800" fill="#042e24" letter-spacing="4" opacity="0.5">NPC</text>
    <line x1="46" y1="79" x2="82" y2="79" stroke="#b0f5e8" stroke-width="0.8" opacity="0.25"/>

    <!-- NECK -->
    <rect x="55" y="52" width="18" height="14" rx="5" fill="url(#gNeck)"/>

    <!-- HEAD -->
    <g filter="url(#f3d)">
      <rect x="38" y="18" width="52" height="38" rx="13" fill="url(#gHead)"/>
    </g>
    <ellipse cx="52" cy="27" rx="16" ry="9" fill="url(#gSpec)" opacity="0.6"/>
    <rect x="38" y="18" width="52" height="38" rx="13" fill="url(#gAO)" opacity="0.35"/>
    <path d="M90 31 Q90 18 77 18" fill="none" stroke="#c0faf0" stroke-width="1.2" opacity="0.2"/>

    <!-- EYES -->
    <circle cx="52" cy="38" r="6" fill="#050d16"/>
    <circle cx="76" cy="38" r="6" fill="#050d16"/>
    <circle cx="52" cy="38" r="6" fill="none" stroke="#22c55e" stroke-width="0.8" opacity="0.3"/>
    <circle cx="76" cy="38" r="6" fill="none" stroke="#22c55e" stroke-width="0.8" opacity="0.3"/>
    <circle cx="52" cy="37.5" r="3.5" fill="#5dcaa5"/>
    <circle cx="76" cy="37.5" r="3.5" fill="#5dcaa5"/>
    <circle cx="54.5" cy="35" r="1.8" fill="white" opacity="0.95"/>
    <circle cx="78.5" cy="35" r="1.8" fill="white" opacity="0.95"/>
    <circle cx="50" cy="39.5" r="0.9" fill="white" opacity="0.5"/>
    <circle cx="74" cy="39.5" r="0.9" fill="white" opacity="0.5"/>

    <!-- ANTENNA -->
    <line x1="64" y1="18" x2="64" y2="6" stroke="#1d9e75" stroke-width="3" stroke-linecap="round"/>
    <line x1="65.5" y1="18" x2="65.5" y2="6" stroke="#064538" stroke-width="1.2" stroke-linecap="round" opacity="0.5"/>
    <g filter="url(#fGlow)">
      <circle cx="64" cy="5" r="5" fill="url(#gAntenna)"/>
    </g>

  </g>
</svg>